<?xml version="1.0" encoding="UTF-8"?>
<svg version="1.1" xmlns="http://www.w3.org/2000/svg" viewBox= "0 0 256 256" width=100% height=100%>
<path d="M0 0 C0.8746245 -0.0055344 1.749249 -0.01106879 2.65037727 -0.0167709 C5.58084662 -0.0303832 8.51046515 -0.01540498 11.44091797 -0.00050354 C13.54189414 -0.0042865 15.64286783 -0.00978635 17.74383545 -0.01687622 C23.4504105 -0.03085101 29.15668472 -0.01964669 34.8632431 -0.00316501 C40.8320083 0.01067353 46.80075581 0.00422678 52.76953125 0.0007019 C62.79350641 -0.00200116 72.8173619 0.01148373 82.84130859 0.03465271 C94.43444532 0.06126298 106.02738192 0.06300986 117.62053871 0.05126435 C128.76753935 0.0404894 139.91446752 0.04667144 151.0614624 0.06081963 C155.807777 0.06658186 160.55403862 0.06649486 165.300354 0.06175423 C170.88836476 0.05698592 176.47615606 0.06708024 182.06412506 0.08870888 C184.11641957 0.09427889 186.16873517 0.0947401 188.22103119 0.08975601 C191.01966891 0.0838112 193.81763387 0.09629303 196.61621094 0.11352539 C197.43089907 0.10751535 198.2455872 0.1015053 199.08496284 0.09531313 C203.64490536 0.14646919 206.71076668 0.60263096 210.30810547 3.50120544 C210.93701172 5.62229919 210.93701172 5.62229919 210.87060547 7.93870544 C210.87189453 8.70054138 210.87318359 9.46237732 210.87451172 10.24729919 C210.05356825 13.51408804 209.09982129 14.58297126 206.30810547 16.50120544 C203.20824337 17.0665357 200.1400713 17.05312198 196.99560547 17.06370544 C177.67810904 17.60146655 158.97071275 22.15381026 144.62060547 35.93870544 C135.14518387 44.50711113 119.22783033 51.50120544 106.30810547 51.50120544 C106.30810547 66.02120544 106.30810547 80.54120544 106.30810547 95.50120544 C108.28810547 96.49120544 108.28810547 96.49120544 110.30810547 97.50120544 C112.20914083 98.88273865 114.08043847 100.30545497 115.93310547 101.75120544 C116.4894165 102.18376648 117.04572754 102.61632751 117.61889648 103.06199646 C118.84894717 104.01896284 120.07781127 104.9774558 121.30566406 105.9372406 C123.42418425 107.59186634 125.54731696 109.24042947 127.67138672 110.88792419 C131.48276821 113.84500935 135.28839156 116.80939941 139.09228516 119.77610779 C141.23638625 121.44536939 143.38501762 123.10863069 145.53466797 124.77073669 C146.81342058 125.76408884 148.09207224 126.75757095 149.37060547 127.75120544 C149.960271 128.20487488 150.54993652 128.65854431 151.1574707 129.1259613 C155.19458926 132.27417302 155.19458926 132.27417302 156.30810547 134.50120544 C156.88117137 141.60722264 156.88117137 141.60722264 154.74560547 144.93870544 C151.34915014 147.1159204 149.37080945 147.63662891 145.30810547 147.50120544 C142.29283678 145.91691173 139.86880552 143.72887948 137.30810547 141.50120544 C135.53947478 140.06099628 133.76849851 138.6236644 131.99560547 137.18870544 C130.09924665 135.62684325 128.20342482 134.06432887 126.30810547 132.50120544 C124.37118913 130.91715817 122.4337019 129.33380865 120.49560547 127.75120544 C116.7479185 124.68955497 113.0226032 121.60294662 109.30810547 118.50120544 C109.29875977 119.2375824 109.28941406 119.97395935 109.27978516 120.73265076 C109.22606392 124.07284763 109.14241925 127.41164664 109.05810547 130.75120544 C109.04392578 131.91007263 109.02974609 133.06893982 109.01513672 134.26292419 C108.96679688 135.93548279 108.96679688 135.93548279 108.91748047 137.64183044 C108.8965332 138.66824646 108.87558594 139.69466248 108.85400391 140.75218201 C108.17663053 144.16328405 106.99826545 145.36352253 104.30810547 147.50120544 C102.08935547 148.06761169 102.08935547 148.06761169 99.80810547 148.06370544 C99.05529297 148.08561951 98.30248047 148.10753357 97.52685547 148.13011169 C95.30810547 147.50120544 95.30810547 147.50120544 93.07373047 145.70433044 C90.39786811 140.84988989 90.63147608 136.14814597 90.55810547 130.68870544 C90.52845703 129.61427185 90.49880859 128.53983826 90.46826172 127.43284607 C90.39775625 124.78889117 90.34496404 122.14580814 90.30810547 119.50120544 C89.45990234 120.23983826 88.61169922 120.97847107 87.73779297 121.73948669 C80.45410297 128.05062068 73.07562883 134.19357114 65.43701172 140.07151794 C63.56070019 141.52852889 61.70576131 143.01471116 59.89794922 144.55589294 C56.49874833 147.39838463 55.11156535 148.47442345 50.55810547 148.62620544 C46.97866889 147.38716971 45.39090733 146.66706428 43.30810547 143.50120544 C42.60524669 139.28405276 42.83122744 137.25763267 45.12060547 133.62620544 C48.48990792 130.04927091 52.39304577 127.04599853 56.22216797 123.98167419 C59.41957573 121.41160593 62.55768747 118.78274013 65.68310547 116.12620544 C66.21991943 115.67092468 66.7567334 115.21564392 67.30981445 114.74656677 C69.57020622 112.82881129 71.82873047 110.908865 74.08691406 108.98851013 C75.84738561 107.49184598 77.60897928 105.9965102 79.37060547 104.50120544 C79.90669434 104.04439392 80.4427832 103.5875824 80.99511719 103.1169281 C83.09142009 101.33790347 85.12665584 99.61697774 87.4475708 98.13613892 C89.47475096 96.66691529 89.47475096 96.66691529 89.8270874 94.43206787 C89.84041107 93.24293037 89.84041107 93.24293037 89.85400391 92.0297699 C89.87372253 91.12906265 89.89344116 90.22835541 89.91375732 89.300354 C89.91498596 88.33151779 89.9162146 87.36268158 89.91748047 86.36448669 C89.93401672 85.36990952 89.95055298 84.37533234 89.96759033 83.35061646 C90.01620497 80.17158416 90.03747141 76.99303064 90.05810547 73.81370544 C90.08625384 71.6593843 90.11617966 69.5050856 90.14794922 67.35081482 C90.22196708 62.06769901 90.27353057 56.78471861 90.30810547 51.50120544 C89.62901123 51.44039291 88.94991699 51.37958038 88.25024414 51.31692505 C87.35539307 51.23295975 86.46054199 51.14899445 85.53857422 51.06248474 C84.65322998 50.98104721 83.76788574 50.89960968 82.85571289 50.81570435 C70.98280729 49.35000923 60.44850759 42.93891438 51.39013672 35.50950623 C35.32705177 22.3851148 18.71878774 18.11692876 -1.87353516 18.0544281 C-9.04228316 17.93204075 -9.04228316 17.93204075 -12.33642578 15.74729919 C-13.82761725 13.27630469 -14.25931176 11.8728643 -14.25439453 9.00120544 C-14.27630859 8.24839294 -14.29822266 7.49558044 -14.32080078 6.71995544 C-12.40627901 -0.03438222 -5.93168811 -0.06993339 0 0 Z " fill="currentColor" transform="translate(29.69189453125,92.49879455566406)"/>
<path d="M0 0 C2.46003235 1.92207539 2.98718919 2.96156757 4 6 C4.03954234 8.33299825 4.04401732 10.66708189 4 13 C4.71542969 13.08636719 5.43085938 13.17273437 6.16796875 13.26171875 C21.41501233 15.41168997 33.69044902 21.52369931 45.3125 31.5 C60.20671213 43.93306027 76.50405746 46.32009084 95.36914062 47.171875 C96.56861328 47.23890625 97.76808594 47.3059375 99.00390625 47.375 C100.08486572 47.42398438 101.1658252 47.47296875 102.27954102 47.5234375 C105.2742665 48.04804525 106.25218119 48.55431509 108 51 C108.3984375 53.375 108.3984375 53.375 108.375 56 C108.38273438 56.86625 108.39046875 57.7325 108.3984375 58.625 C107.91792548 61.4892285 107.23219209 62.20535627 105 64 C102.05763632 64.29500873 99.32685616 64.40447347 96.38330078 64.38095093 C95.49263979 64.3856309 94.6019788 64.39031087 93.68432808 64.39513266 C90.68783988 64.40713719 87.69180442 64.39760413 84.6953125 64.38818359 C82.55197888 64.39224687 80.40864736 64.39758737 78.26531982 64.40411377 C72.4348515 64.41782218 66.60454194 64.41247416 60.77407074 64.40297651 C54.68157005 64.39539816 48.58908324 64.40242044 42.49658203 64.40713501 C32.26397248 64.41259789 22.03142783 64.40538698 11.79882812 64.39111328 C-0.04309985 64.37478579 -11.88487289 64.38007392 -23.7267971 64.3965925 C-33.88139869 64.41019219 -44.03595355 64.41213445 -54.19056129 64.40427649 C-60.26099819 64.39959163 -66.33136218 64.39899742 -72.40179443 64.40888596 C-78.10795113 64.41753128 -83.81390744 64.41157828 -89.52004242 64.39420319 C-91.61833106 64.39022531 -93.71663647 64.39139449 -95.81491852 64.39799118 C-98.67127615 64.40614542 -101.5269849 64.39595942 -104.38330078 64.38095093 C-105.63946355 64.39098918 -105.63946355 64.39098918 -106.92100334 64.40123022 C-112.57297934 64.3433172 -112.57297934 64.3433172 -114.71043205 62.62484229 C-116.48952927 60.38319818 -116.4002779 58.83112447 -116.375 56 C-116.38273437 55.13375 -116.39046875 54.2675 -116.3984375 53.375 C-115.90880667 50.45641623 -115.34770059 49.7662883 -113 48 C-110.3112793 47.53930664 -110.3112793 47.53930664 -107.07421875 47.41015625 C-105.89142334 47.35053711 -104.70862793 47.29091797 -103.48999023 47.22949219 C-102.23516846 47.17438477 -100.98034668 47.11927734 -99.6875 47.0625 C-81.98893349 46.02792826 -67.94490202 42.97417585 -54.1875 31.125 C-42.34835029 20.96841679 -28.76021817 14.23609554 -13 13 C-13.04640625 12.39671875 -13.0928125 11.7934375 -13.140625 11.171875 C-13.42990654 4.76635514 -13.42990654 4.76635514 -11.5625 1.4375 C-7.85451454 -0.6425894 -4.16013014 -0.85041334 0 0 Z " fill="currentColor" transform="translate(132,16)"/>
</svg>
