<?xml version="1.0" encoding="UTF-8"?>
<svg version="1.1" xmlns="http://www.w3.org/2000/svg" width=100% height=100% viewBox= "0 0 256 256">
<path class="instrument-icon" d="M0 0 C20.41654723 17.70143925 35.30127616 41.48633239 38.99609375 68.59765625 C39.10566406 69.37753906 39.21523437 70.15742187 39.328125 70.9609375 C42.77041268 99.73846253 35.23154152 126.86892489 18.99609375 150.59765625 C20.65375281 154.25685046 22.90033849 157.42084638 25.24609375 160.66015625 C25.68010498 161.26375977 26.11411621 161.86736328 26.5612793 162.48925781 C29.69436335 166.8328392 32.86525997 171.14832195 36.04541016 175.45751953 C37.22551678 177.05724867 38.40356251 178.65850008 39.57958984 180.26123047 C42.60695035 184.38343537 45.66314629 188.47715132 48.78125 192.53125 C49.97797831 194.11579953 51.17459701 195.70043186 52.37109375 197.28515625 C52.93675049 198.0028418 53.50240723 198.72052734 54.08520508 199.45996094 C57.76136752 204.37992908 58.81547769 207.44566873 57.99609375 213.59765625 C55.43724996 216.60806071 53.96628676 217.49910102 50.03515625 217.8984375 C45.41277403 217.44095237 44.29315848 215.25377967 41.4453125 211.79296875 C35.80609949 204.51087297 30.39449977 197.05880955 24.99609375 189.59765625 C24.39442383 188.7679834 23.79275391 187.93831055 23.17285156 187.08349609 C17.75260635 179.60816064 12.35836842 172.11467983 6.99609375 164.59765625 C5.66578125 165.80421875 5.66578125 165.80421875 4.30859375 167.03515625 C-21.43049305 188.91338003 -50.58804113 196.5145279 -84.00390625 194.59765625 C-105.65998823 192.32305683 -125.55547093 182.60383731 -142.00390625 168.59765625 C-143.66691559 167.25976407 -145.33266461 165.92525066 -147.00390625 164.59765625 C-147.32439941 165.04343018 -147.64489258 165.4892041 -147.97509766 165.94848633 C-156.05417427 177.17831709 -164.19989398 188.35626136 -172.43505859 199.47216797 C-173.86926766 201.41524673 -175.29222137 203.36590964 -176.7109375 205.3203125 C-177.48824219 206.38121094 -178.26554687 207.44210938 -179.06640625 208.53515625 C-180.04287109 209.87900391 -180.04287109 209.87900391 -181.0390625 211.25 C-183.17282848 213.79948977 -185.25018985 215.73293491 -188.00390625 217.59765625 C-191.47149567 217.53787023 -193.89217374 217.20731602 -196.94140625 215.53515625 C-198.70317966 212.32251062 -198.60749054 209.11618626 -198.00390625 205.59765625 C-196.50062148 202.53183853 -194.48729706 199.96004763 -192.37890625 197.28515625 C-191.79568604 196.51316895 -191.21246582 195.74118164 -190.61157227 194.94580078 C-189.37818814 193.31346288 -188.13753683 191.68659376 -186.89013672 190.06494141 C-183.84410296 186.08057469 -180.90014776 182.0220046 -177.94140625 177.97265625 C-174.49432386 173.26086924 -171.01924417 168.58744812 -167.3828125 164.01953125 C-166.81377197 163.29459473 -166.24473145 162.5696582 -165.65844727 161.82275391 C-164.58174454 160.45610246 -163.49039971 159.10081923 -162.38256836 157.75927734 C-160.74291844 155.75001563 -160.74291844 155.75001563 -159.00390625 152.59765625 C-159.30929567 149.94779552 -159.30929567 149.94779552 -161.00390625 147.59765625 C-161.87982422 146.04884766 -161.87982422 146.04884766 -162.7734375 144.46875 C-163.44761719 143.33566406 -164.12179688 142.20257813 -164.81640625 141.03515625 C-180.0618236 114.78604562 -183.51741379 85.55139303 -176.31640625 56.16015625 C-168.0381575 26.87968382 -148.90971635 3.37542715 -122.50927734 -11.62182617 C-83.81690329 -32.82677435 -34.03882212 -28.02248316 0 0 Z M-140.40625 23.16064453 C-155.57109682 40.7815372 -164.93367284 63.70500185 -164.1875 87.1875 C-162.95407229 103.37951913 -159.44756166 125.79118906 -147.00390625 137.59765625 C-146.5231665 136.92899536 -146.5231665 136.92899536 -146.03271484 136.24682617 C-140.23461614 128.1875305 -134.42240196 120.13902229 -128.53613281 112.14379883 C-127.35012081 110.53260965 -126.16716272 108.9191679 -124.98730469 107.3034668 C-122.44503526 103.83500272 -119.89127248 100.41153029 -117.12109375 97.12109375 C-112.23697448 91.19584561 -110.19469456 87.75227494 -110.86328125 80.0078125 C-111.07124991 76.44346081 -110.08683291 74.44432269 -108.00390625 71.59765625 C-103.70153829 67.89561871 -99.62994747 66.32560397 -94.00390625 66.59765625 C-88.77397677 68.16663509 -86.02723704 70.06266006 -83.00390625 74.59765625 C-81.14772418 78.31002039 -81.55580644 82.54608713 -82.00390625 86.59765625 C-84.188449 91.04765075 -86.46244279 93.5909631 -91.00390625 95.59765625 C-92.08929688 95.62472656 -93.1746875 95.65179688 -94.29296875 95.6796875 C-99.64867163 97.00451927 -101.1467272 100.00246298 -104.06640625 104.47265625 C-105.20046286 106.1246324 -106.33592656 107.77564332 -107.47265625 109.42578125 C-108.05273438 110.28107422 -108.6328125 111.13636719 -109.23046875 112.01757812 C-112.07709416 116.15897919 -115.07099063 120.18824344 -118.06640625 124.22265625 C-118.93011841 125.39284302 -118.93011841 125.39284302 -119.8112793 126.58666992 C-125.49840562 134.28977013 -131.24374246 141.94908711 -137.00390625 149.59765625 C-123.59615338 165.97715568 -102.94675124 175.96441957 -82.00390625 178.59765625 C-55.29612904 179.93317579 -31.50025373 174.92089659 -10.22265625 157.6875 C-7.54403891 155.16450656 -5.31213991 152.46262937 -3.00390625 149.59765625 C-3.57496094 148.86804688 -4.14601562 148.1384375 -4.734375 147.38671875 C-10.2724209 140.27002753 -15.61998592 133.03426613 -20.87890625 125.70922852 C-25.70007462 118.99858755 -30.59427256 112.34369727 -35.51074219 105.70263672 C-36.06922852 104.94740723 -36.62771484 104.19217773 -37.203125 103.4140625 C-37.69643311 102.74834229 -38.18974121 102.08262207 -38.69799805 101.39672852 C-39.83909394 99.8247084 -40.92639529 98.21392269 -42.00390625 96.59765625 C-44.02584016 95.94754948 -44.02584016 95.94754948 -46.31640625 95.66015625 C-50.49358284 94.84755437 -52.97318672 93.72021577 -56.00390625 90.59765625 C-58.7110895 86.12075956 -58.66360228 81.69018781 -58.00390625 76.59765625 C-56.02254723 72.70570103 -53.90089667 69.65440119 -50.00390625 67.59765625 C-43.95843565 66.18704644 -39.44327061 66.43775944 -34.00390625 69.59765625 C-31.38950484 72.2790936 -30.18494094 74.05455217 -29.00390625 77.59765625 C-29.18179688 78.63792969 -29.18179688 78.63792969 -29.36328125 79.69921875 C-30.16338834 84.86791053 -29.42225674 88.34305913 -26.46484375 92.609375 C-23.65502317 96.33851608 -20.68169597 99.93322778 -17.69628906 103.52246094 C-15.32394958 106.43141732 -13.15338204 109.45978702 -11.00390625 112.53515625 C-10.21540102 113.65143551 -9.42632367 114.76731084 -8.63671875 115.8828125 C-8.02038574 116.75510498 -8.02038574 116.75510498 -7.39160156 117.64501953 C-4.57766815 121.60452683 -1.72549582 125.53659782 1.12109375 129.47265625 C1.70246094 130.27695068 2.28382813 131.08124512 2.8828125 131.90991211 C4.25357594 133.80606605 5.62466146 135.70198604 6.99609375 137.59765625 C20.03652223 122.13176514 24.63736166 100.41503214 23.99609375 80.59765625 C21.61587703 53.63917741 10.23461803 30.36470393 -10.29296875 12.71875 C-50.17473655 -18.48557264 -106.3937209 -14.74816663 -140.40625 23.16064453 Z " fill="currentColor" transform="translate(198.00390625,31.40234375)"/>
</svg>
